<?xml version="1.0" encoding="UTF-8"?><svg id="Layer_2" xmlns="http://www.w3.org/2000/svg" viewBox="0 0 215.76 187.29"><defs><style>.cls-1{fill:#fff;}</style></defs><g id="Layer_1-2"><g><path class="cls-1" d="M60.6,86.79l.75,.75c-5.24,15.71-16.91,20.2-27.08,20.2C15.41,107.73,0,92.02,0,69.88c0-25.59,20.65-36.96,36.96-36.96,10.48,0,18.41,2.99,24.39,7.48l-9.43,12.57-16.46-14.07c-12.87,0-22,9.58-22,26.78s8.53,29.33,25.29,29.33c5.99,0,13.17-1.64,21.85-8.23Z"/><path class="cls-1" d="M94.71,106.24H57.31l11.97-8.98V51.17l-10.47-7.78,23.94-10.47V97.26l11.97,8.98ZM66.28,8.98c0-4.94,4.04-8.98,8.98-8.98s8.98,4.04,8.98,8.98-4.04,8.98-8.98,8.98-8.98-4.04-8.98-8.98Z"/><path class="cls-1" d="M146.04,85.74c0,14.07-13.32,22-26.49,22-5.84,0-11.67-1.5-16.61-3.59l-9.28,3.59v-24.99l11.82,15.56c4.49,2.24,8.98,3.44,13.17,3.44,8.68,0,13.02-5.09,13.02-11.37,0-18.55-38.01-13.62-38.01-36.81,0-14.37,14.51-20.65,26.93-20.65,5.24,0,10.18,1.2,14.66,2.99l7.78-2.99v24.99l-13.17-17.51c-2.69-.9-5.69-1.5-8.68-1.5-9.88,0-14.07,5.54-14.07,11.07,0,16.76,38.9,11.67,38.9,35.76Z"/><path class="cls-1" d="M215.76,71.22c0,23.04-23.19,36.51-44.59,36.51-9.88,0-17.51-2.84-23.19-7.18l8.98-11.97,15.71,11.67c15.56,0,29.63-10.33,29.63-25.29,0-10.03-6.28-19.3-19.3-23.19-3.89,1.8-8.08,3.44-12.87,5.09l-2.24-5.99c21.1-8.08,25.29-16.46,25.29-24.39,0-8.53-4.79-14.51-15.41-14.51-7.78,0-18.55,3.14-29.03,14.96l-.75-.75C156.06,8.68,167.28,0,182.99,0c17.06,0,25.14,10.18,25.14,22.44,0,7.93-3.29,14.66-10.62,20.65,10.77,5.54,18.26,14.81,18.26,28.13Z"/><path class="cls-1" d="M71.07,174.57c-3.74,9.88-8.53,12.72-14.81,12.72-7.48,0-12.42-4.19-13.92-11.07h-.75c-4.94,7.03-12.12,11.07-21.4,11.07-11.97,0-20.2-6.58-20.2-17.51,0-7.93,4.34-14.07,10.18-17.21h30.67v-12.57c0-11.67-4.64-16.31-14.96-16.31-7.03,0-14.37,2.1-22,7.48l-.75-.75c7.18-13.02,19.45-17.96,30.23-17.96,13.47,0,20.95,7.78,20.95,22.29v33.82c0,7.03,3.14,8.68,7.18,8.68,2.84,0,5.24-.75,8.83-3.44l.75,.75Zm-30.23-4.34v-12.42H17.51c-2.09,2.54-3.29,5.68-3.29,9.88,0,8.08,5.24,10.62,10.47,10.62s10.33-2.54,16.16-8.08Z"/><path class="cls-1" d="M143.34,180.1l-17.06,7.18-4.64-13.32h-.75c-4.49,4.49-16.16,13.32-29.03,13.32-8.83,0-19.6-4.79-19.6-20.8v-35.76l-10.47-7.78,23.94-10.47v47.28c0,13.17,6.13,16.31,13.32,16.31,4.79,0,12.42-1.2,20.35-7.33v-38.01l-10.47-7.78,23.94-10.47v59.85l10.47,7.78Z"/><path class="cls-1" d="M215.61,185.79h-39.95l11.97-8.98-15.56-19.9-16.01,19.9,13.17,8.98h-35.16l11.97-8.98,21.1-26.04-22.59-28.88-10.47-7.93h40.1l-11.97,8.98,14.96,19.15,15.11-19.15-13.17-8.98h34.86l-11.97,8.98-20.05,25.29,23.49,29.93,10.18,7.63Z"/></g></g></svg>